<?xml version="1.0" encoding="UTF-8" standalone="no"?>
<!DOCTYPE svg PUBLIC "-//W3C//DTD SVG 1.1//EN" "http://www.w3.org/Graphics/SVG/1.1/DTD/svg11.dtd">
<svg xmlns="http://www.w3.org/2000/svg" version="1.1" viewBox="0.00 0.00 300.00 72.00">
<g stroke-width="2.00" fill="none" stroke-linecap="butt">
<path stroke="#1d6c8e" vector-effect="non-scaling-stroke" d="
  M 31.16 69.50
  Q 31.18 69.50 31.22 69.50
  A 0.15 0.01 -1.2 0 0 31.36 69.49
  Q 38.18 64.51 53.25 53.32
  A 1.67 1.66 77.2 0 0 53.90 52.28
  L 59.82 19.69
  A 0.68 0.68 0.0 0 0 59.50 18.99
  Q 46.72 11.45 31.36 2.63
  Q 31.35 2.63 31.15 2.63
  Q 30.95 2.63 30.94 2.63
  Q 15.58 11.45 2.80 19.00
  A 0.68 0.68 0.0 0 0 2.48 19.70
  L 8.41 52.29
  A 1.67 1.66 -77.2 0 0 9.06 53.33
  Q 24.14 64.51 30.96 69.49
  A 0.15 0.01 1.2 0 0 31.09 69.50
  Q 31.14 69.50 31.16 69.50"
/>
<path stroke="#9c9c9c" vector-effect="non-scaling-stroke" d="
  M 42.0292 19.7319
  A 3.72 3.72 0.0 0 0 38.2963 16.0249
  L 23.8364 16.0753
  A 3.72 3.72 0.0 0 0 20.1294 19.8083
  L 20.2308 48.8481
  A 3.72 3.72 0.0 0 0 23.9637 52.5551
  L 38.4236 52.5047
  A 3.72 3.72 0.0 0 0 42.1306 48.7717
  L 42.0292 19.7319"
/>
<path stroke="#80cff1" vector-effect="non-scaling-stroke" d="
  M 22.20 49.35
  L 38.82 49.06
  A 1.86 1.86 0.0 0 0 40.65 47.18
  L 40.35 18.17"
/>
<path stroke="#80bde1" vector-effect="non-scaling-stroke" d="
  M 40.35 18.17
  Q 31.32 17.32 23.64 18.07
  A 1.60 1.59 24.4 0 0 22.86 18.36
  C 21.32 19.47 21.98 20.59 21.92 22.05
  Q 21.37 35.34 22.20 49.35"
/>
<path stroke="#018dd3" vector-effect="non-scaling-stroke" d="
  M 40.35 18.17
  Q 37.07 22.29 35.30 25.83
  Q 29.63 37.16 22.20 49.35"
/>
<path stroke="#9c9c9c" vector-effect="non-scaling-stroke" d="
  M 30.3349 50.1526
  A 1.10 0.99 -138.6 0 0 30.5053 51.6226
  A 1.10 0.99 -138.6 0 0 31.9851 51.6074
  A 1.10 0.99 -138.6 0 0 31.8147 50.1374
  A 1.10 0.99 -138.6 0 0 30.3349 50.1526"
/>
</g>
<path fill="#019fe3" d="
  M 31.52 72.00
  L 30.91 72.00
  L 7.08 54.37
  A 1.32 1.32 0.0 0 1 6.58 53.58
  L 0.00 19.00
  L 0.00 18.27
  L 30.55 0.41
  A 0.93 0.92 44.5 0 1 31.48 0.41
  L 61.72 17.87
  A 0.68 0.67 20.4 0 1 62.05 18.58
  L 55.70 53.56
  A 1.40 1.40 0.0 0 1 55.15 54.44
  L 31.52 72.00
  Z
  M 31.16 69.50
  Q 31.18 69.50 31.22 69.50
  A 0.15 0.01 -1.2 0 0 31.36 69.49
  Q 38.18 64.51 53.25 53.32
  A 1.67 1.66 77.2 0 0 53.90 52.28
  L 59.82 19.69
  A 0.68 0.68 0.0 0 0 59.50 18.99
  Q 46.72 11.45 31.36 2.63
  Q 31.35 2.63 31.15 2.63
  Q 30.95 2.63 30.94 2.63
  Q 15.58 11.45 2.80 19.00
  A 0.68 0.68 0.0 0 0 2.48 19.70
  L 8.41 52.29
  A 1.67 1.66 -77.2 0 0 9.06 53.33
  Q 24.14 64.51 30.96 69.49
  A 0.15 0.01 1.2 0 0 31.09 69.50
  Q 31.14 69.50 31.16 69.50
  Z"
/>
<path fill="#383838" d="
  M 31.15 2.63
  Q 31.35 2.63 31.36 2.63
  Q 46.72 11.45 59.50 18.99
  A 0.68 0.68 0.0 0 1 59.82 19.69
  L 53.90 52.28
  A 1.67 1.66 77.2 0 1 53.25 53.32
  Q 38.18 64.51 31.36 69.49
  A 0.15 0.01 -1.2 0 1 31.22 69.50
  Q 31.18 69.50 31.16 69.50
  Q 31.14 69.50 31.09 69.50
  A 0.15 0.01 1.2 0 1 30.96 69.49
  Q 24.14 64.51 9.06 53.33
  A 1.67 1.66 -77.2 0 1 8.41 52.29
  L 2.48 19.70
  A 0.68 0.68 0.0 0 1 2.80 19.00
  Q 15.58 11.45 30.94 2.63
  Q 30.95 2.63 31.15 2.63
  Z
  M 42.0292 19.7319
  A 3.72 3.72 0.0 0 0 38.2963 16.0249
  L 23.8364 16.0753
  A 3.72 3.72 0.0 0 0 20.1294 19.8083
  L 20.2308 48.8481
  A 3.72 3.72 0.0 0 0 23.9637 52.5551
  L 38.4236 52.5047
  A 3.72 3.72 0.0 0 0 42.1306 48.7717
  L 42.0292 19.7319
  Z"
/>
<path fill="#ffffff" d="
  M 42.1306 48.7717
  A 3.72 3.72 0.0 0 1 38.4236 52.5047
  L 23.9637 52.5551
  A 3.72 3.72 0.0 0 1 20.2308 48.8481
  L 20.1294 19.8083
  A 3.72 3.72 0.0 0 1 23.8364 16.0753
  L 38.2963 16.0249
  A 3.72 3.72 0.0 0 1 42.0292 19.7319
  L 42.1306 48.7717
  Z
  M 22.20 49.35
  L 38.82 49.06
  A 1.86 1.86 0.0 0 0 40.65 47.18
  L 40.35 18.17
  Q 31.32 17.32 23.64 18.07
  A 1.60 1.59 24.4 0 0 22.86 18.36
  C 21.32 19.47 21.98 20.59 21.92 22.05
  Q 21.37 35.34 22.20 49.35
  Z
  M 30.3349 50.1526
  A 1.10 0.99 -138.6 0 0 30.5053 51.6226
  A 1.10 0.99 -138.6 0 0 31.9851 51.6074
  A 1.10 0.99 -138.6 0 0 31.8147 50.1374
  A 1.10 0.99 -138.6 0 0 30.3349 50.1526
  Z"
/>
<path fill="#007ac3" d="
  M 40.35 18.17
  Q 37.07 22.29 35.30 25.83
  Q 29.63 37.16 22.20 49.35
  Q 21.37 35.34 21.92 22.05
  C 21.98 20.59 21.32 19.47 22.86 18.36
  A 1.60 1.59 24.4 0 1 23.64 18.07
  Q 31.32 17.32 40.35 18.17
  Z"
/>
<path fill="#019fe3" d="
  M 22.20 49.35
  Q 29.63 37.16 35.30 25.83
  Q 37.07 22.29 40.35 18.17
  L 40.65 47.18
  A 1.86 1.86 0.0 0 1 38.82 49.06
  L 22.20 49.35
  Z"
/>
<path fill="#ffffff" d="
  M 139.87 36.00
  C 139.87 39.41 141.84 43.26 145.49 43.99
  Q 150.42 44.96 153.33 41.52
  A 0.46 0.45 -47.5 0 1 154.00 41.49
  L 157.06 44.55
  A 0.38 0.38 0.0 0 1 157.07 45.06
  Q 154.08 48.44 150.05 49.05
  C 141.24 50.39 134.21 45.13 134.20 36.01
  C 134.19 26.89 141.21 21.62 150.02 22.94
  Q 154.05 23.54 157.05 26.91
  A 0.38 0.38 0.0 0 1 157.04 27.42
  L 153.99 30.49
  A 0.46 0.45 47.3 0 1 153.32 30.46
  Q 150.40 27.02 145.47 28.01
  C 141.82 28.74 139.86 32.60 139.87 36.00
  Z"
/>
<path fill="#ffffff" d="
  M 298.80 25.73
  L 296.98 28.88
  A 0.44 0.43 -62.5 0 1 296.42 29.06
  Q 290.99 26.52 287.33 28.05
  A 2.46 2.20 -26.7 0 0 286.03 31.34
  Q 286.63 32.33 287.82 32.67
  C 293.69 34.37 301.41 35.30 299.54 43.30
  Q 298.55 47.52 293.95 48.70
  Q 286.32 50.65 279.93 46.58
  A 0.64 0.64 0.0 0 1 279.73 45.72
  L 281.66 42.37
  A 0.38 0.36 -58.2 0 1 282.18 42.24
  Q 286.98 45.36 292.17 44.15
  Q 293.84 43.76 294.20 42.57
  A 2.59 2.37 18.6 0 0 292.56 39.60
  C 288.31 38.01 280.08 37.71 280.23 30.63
  C 280.44 21.12 293.00 21.62 298.51 24.68
  A 0.77 0.76 29.7 0 1 298.80 25.73
  Z"
/>
<path fill="#ffffff" d="
  M 89.48 35.89
  Q 89.48 36.82 89.45 37.75
  A 0.52 0.51 0.9 0 1 88.93 38.25
  L 78.64 38.25
  A 0.39 0.38 90.0 0 0 78.26 38.64
  L 78.26 43.60
  A 0.41 0.41 0.0 0 0 78.67 44.01
  L 90.88 44.01
  A 0.34 0.34 0.0 0 1 91.22 44.35
  L 91.22 48.55
  A 0.38 0.38 0.0 0 1 90.84 48.93
  L 73.07 48.93
  A 0.36 0.35 89.6 0 1 72.72 48.57
  Q 72.71 47.29 72.64 35.99
  Q 72.57 24.70 72.56 23.41
  A 0.36 0.35 89.7 0 1 72.91 23.05
  L 90.68 22.84
  A 0.38 0.38 0.0 0 1 91.07 23.21
  L 91.12 27.41
  A 0.34 0.34 0.0 0 1 90.78 27.76
  L 78.57 27.90
  A 0.41 0.41 0.0 0 0 78.17 28.32
  L 78.23 33.28
  A 0.39 0.38 89.3 0 0 78.61 33.66
  L 88.90 33.54
  A 0.52 0.51 -1.6 0 1 89.42 34.03
  Q 89.47 34.96 89.48 35.89
  Z"
/>
<path fill="#ffffff" d="
  M 98.16 23.06
  C 106.13 22.82 118.42 21.41 118.50 32.25
  Q 118.55 39.37 111.57 41.39
  C 109.11 42.09 105.87 41.89 103.78 41.91
  A 0.66 0.65 -90.0 0 0 103.13 42.57
  L 103.13 48.82
  A 0.21 0.20 -0.0 0 1 102.92 49.02
  L 97.84 49.02
  A 0.28 0.28 0.0 0 1 97.56 48.74
  L 97.56 23.68
  A 0.62 0.62 0.0 0 1 98.16 23.06
  Z
  M 103.12 28.26
  L 103.14 36.64
  A 0.31 0.31 0.0 0 0 103.45 36.95
  L 108.43 36.94
  A 4.43 4.24 -0.1 0 0 112.85 32.69
  L 112.85 32.17
  A 4.43 4.24 -0.1 0 0 108.41 27.94
  L 103.43 27.95
  A 0.31 0.31 0.0 0 0 103.12 28.26
  Z"
/>
<rect fill="#ffffff" x="123.68" y="23.02" width="5.62" height="26.02" rx="0.33"/>
<path fill="#ffffff" d="
  M 174.23 23.54
  A 0.53 0.53 0.0 0 1 174.76 23.01
  L 185.71 23.03
  A 12.84 12.26 0.1 0 1 198.53 35.31
  L 198.53 36.75
  A 12.84 12.26 0.1 0 1 185.67 48.99
  L 174.72 48.97
  A 0.53 0.53 0.0 0 1 174.19 48.44
  L 174.23 23.54
  Z
  M 179.81 28.39
  L 179.89 43.65
  A 0.44 0.44 0.0 0 0 180.33 44.09
  L 185.14 44.07
  A 7.75 7.44 -0.3 0 0 192.85 36.59
  L 192.85 35.33
  A 7.75 7.44 -0.3 0 0 185.06 27.93
  L 180.25 27.95
  A 0.44 0.44 0.0 0 0 179.81 28.39
  Z"
/>
<path fill="#ffffff" d="
  M 203.41 35.99
  Q 203.34 24.69 203.34 23.40
  A 0.36 0.35 89.7 0 1 203.69 23.04
  L 221.46 22.83
  A 0.38 0.38 0.0 0 1 221.85 23.20
  L 221.90 27.41
  A 0.34 0.34 0.0 0 1 221.56 27.75
  L 209.35 27.90
  A 0.41 0.41 0.0 0 0 208.94 28.31
  L 209.00 33.27
  A 0.39 0.38 89.3 0 0 209.39 33.66
  L 219.68 33.53
  A 0.52 0.51 -1.6 0 1 220.20 34.02
  Q 220.25 34.95 220.26 35.89
  Q 220.26 36.82 220.22 37.75
  A 0.52 0.51 0.9 0 1 219.71 38.24
  L 209.41 38.24
  A 0.39 0.38 -90.0 0 0 209.03 38.63
  L 209.03 43.59
  A 0.41 0.41 0.0 0 0 209.44 44.00
  L 221.66 44.01
  A 0.34 0.34 0.0 0 1 222.00 44.35
  L 222.00 48.55
  A 0.38 0.38 0.0 0 1 221.62 48.93
  L 203.84 48.93
  A 0.36 0.35 89.6 0 1 203.49 48.57
  Q 203.48 47.28 203.41 35.99
  Z"
/>
<path fill="#ffffff" d="
  M 240.30 22.99
  Q 241.44 22.99 242.56 23.11
  A 0.96 0.96 0.0 0 1 243.34 23.69
  L 253.68 48.50
  A 0.36 0.36 0.0 0 1 253.35 49.00
  L 248.62 49.00
  A 0.68 0.67 -10.8 0 1 247.99 48.58
  L 246.08 44.00
  A 1.07 1.07 0.0 0 0 245.10 43.34
  Q 244.27 43.33 240.29 43.33
  Q 236.32 43.33 235.48 43.34
  A 1.07 1.07 0.0 0 0 234.51 44.00
  L 232.59 48.58
  A 0.68 0.67 10.9 0 1 231.96 49.00
  L 227.23 49.00
  A 0.36 0.36 0.0 0 1 226.90 48.49
  L 237.25 23.69
  A 0.96 0.96 0.0 0 1 238.03 23.11
  Q 239.15 22.99 240.30 22.99
  Z
  M 236.57 38.52
  A 0.30 0.30 0.0 0 0 236.85 38.92
  L 243.68 38.91
  A 0.30 0.30 0.0 0 0 243.96 38.50
  L 240.53 29.66
  A 0.30 0.30 0.0 0 0 239.97 29.66
  L 236.57 38.52
  Z"
/>
<path fill="#ffffff" d="
  M 263.71 23.42
  L 263.71 43.68
  A 0.39 0.39 0.0 0 0 264.10 44.07
  L 275.46 44.07
  A 0.39 0.39 0.0 0 1 275.85 44.46
  L 275.85 48.60
  A 0.39 0.39 0.0 0 1 275.46 48.99
  L 258.51 48.99
  A 0.39 0.39 0.0 0 1 258.12 48.60
  L 258.12 23.42
  A 0.39 0.39 0.0 0 1 258.51 23.03
  L 263.32 23.03
  A 0.39 0.39 0.0 0 1 263.71 23.42
  Z"
/>
<ellipse fill="#383838" cx="0.00" cy="0.00" transform="translate(31.16,50.88) rotate(-138.6)" rx="1.10" ry="0.99"/>
</svg>
